<?xml version="1.0" encoding="utf-8"?>
<!-- Generator: Adobe Illustrator 18.1.0, SVG Export Plug-In . SVG Version: 6.00 Build 0)  -->
<!DOCTYPE svg PUBLIC "-//W3C//DTD SVG 1.1//EN" "http://www.w3.org/Graphics/SVG/1.1/DTD/svg11.dtd">
<svg version="1.1" id="Layer_1" xmlns="http://www.w3.org/2000/svg" xmlns:xlink="http://www.w3.org/1999/xlink" x="0px" y="0px"
	 viewBox="0 0 373.1 421.8" enable-background="new 0 0 373.1 421.8" xml:space="preserve">
<path fill="#BC3F26" d="M270.2,421.8c7.2-11.9,11.4-25.9,11.4-40.9c0-43.6-35.4-79-79-79s-79,35.4-79,79c0,15,4.2,28.9,11.4,40.9
	H270.2z"/>
<path fill="#BC3F26" d="M225.5,0h-45.9c-3.3,0-6,2.7-6,6v326.9c0,3.3,2.7,6,6,6h45.9c3.3,0,6-2.7,6-6V6C231.5,2.7,228.8,0,225.5,0z"
	/>
<path fill="#BC3F26" d="M126.9,244.2l46,35.4c2.7,2.1,6.6,1.6,8.7-1.1l14.6-19c2.1-2.7,1.6-6.6-1.1-8.7l-46-35.4
	c-2.7-2.1-6.6-1.6-8.7,1.1l-14.6,19C123.6,238.2,124.2,242.1,126.9,244.2z"/>
<path fill="#BC3F26" d="M241.4,129.4l-43.6,38.2c-2.6,2.2-2.8,6.2-0.6,8.7l15.8,18c2.2,2.6,6.2,2.8,8.7,0.6l43.6-38.2
	c2.6-2.2,2.8-6.2,0.6-8.7l-15.8-18C247.8,127.4,243.9,127.1,241.4,129.4z"/>
<path fill="#BC3F26" d="M192.4,0.1l55.6,0c2.1,0,3.4,2.3,2.4,4.1l-27.8,48.2c-1.1,1.8-3.7,1.8-4.7,0L190,4.2
	C189,2.4,190.3,0.1,192.4,0.1z"/>
<path fill="#BC3F26" d="M157.9,0.1l55.6,0c2.1,0,3.4,2.3,2.4,4.1l-27.8,48.2c-1.1,1.8-3.7,1.8-4.7,0L155.5,4.2
	C154.5,2.4,155.8,0.1,157.9,0.1z"/>
<path fill="#B4D085" d="M274.2,122.9l20.9-12.6h68.2c5.4,0,9.8-4.4,9.8-9.8V28.6c0-5.4-4.4-9.8-9.8-9.8h-83.9
	c-5.4,0-9.8,4.4-9.8,9.8v91.9C269.6,122.8,272.2,124.2,274.2,122.9z"/>
<path fill="#FFFFFF" d="M335.4,30.3l-1.8,15.9c-0.4,3.9-3.5,7-7.4,7.4l-15.9,1.8l15.9,1.8c3.9,0.4,7,3.5,7.4,7.4l1.8,15.9l1.8-15.9
	c0.4-3.9,3.5-7,7.4-7.4l15.9-1.8l-15.9-1.8c-3.9-0.4-7-3.5-7.4-7.4L335.4,30.3z"/>
<path fill="#FFFFFF" d="M304.3,65.1l-1,8.7c-0.2,2.1-1.9,3.8-4.1,4.1l-8.7,1l8.7,1c2.1,0.2,3.8,1.9,4.1,4.1l1,8.7l1-8.7
	c0.2-2.1,1.9-3.8,4.1-4.1l8.7-1l-8.7-1c-2.1-0.2-3.8-1.9-4.1-4.1L304.3,65.1z"/>
<path fill="#FFFFFF" d="M296.2,31.9l-0.6,5.5c-0.2,1.4-1.2,2.4-2.6,2.6l-5.5,0.6l5.5,0.6c1.4,0.2,2.4,1.2,2.6,2.6l0.6,5.5l0.6-5.5
	c0.2-1.4,1.2-2.4,2.6-2.6l5.5-0.6l-5.5-0.6c-1.4-0.2-2.4-1.2-2.6-2.6L296.2,31.9z"/>
<g>
	<path fill="#B4D085" d="M131.2,94.6H116c-1.1,0-1.9-0.9-1.9-1.9s0.9-1.9,1.9-1.9h15.1c1.1,0,1.9,0.9,1.9,1.9S132.3,94.6,131.2,94.6
		z"/>
</g>
<g>
	<path fill="#B4D085" d="M123.6,102.2c-1.1,0-1.9-0.9-1.9-1.9V85.1c0-1.1,0.9-1.9,1.9-1.9s1.9,0.9,1.9,1.9v15.1
		C125.6,101.3,124.7,102.2,123.6,102.2z"/>
</g>
<path fill="#1882A8" d="M305.3,230l2.2,19.1c0.5,4.7,4.2,8.4,8.9,8.9l19.1,2.2l-19.1,2.2c-4.7,0.5-8.4,4.2-8.9,8.9l-2.2,19.1
	l-2.2-19.1c-0.5-4.7-4.2-8.4-8.9-8.9l-19.1-2.2l19.1-2.2c4.7-0.5,8.4-4.2,8.9-8.9L305.3,230z"/>
<path fill="#1882A8" d="M273.9,204.7l1.2,10.2c0.3,2.5,2.3,4.5,4.8,4.8l10.2,1.2l-10.2,1.2c-2.5,0.3-4.5,2.3-4.8,4.8l-1.2,10.2
	l-1.2-10.2c-0.3-2.5-2.3-4.5-4.8-4.8l-10.2-1.2l10.2-1.2c2.5-0.3,4.5-2.3,4.8-4.8L273.9,204.7z"/>
<path fill="#1882A8" d="M107.2,217.7L84.6,204H10.6C4.8,204,0,199.2,0,193.4v-37.2c0-5.9,4.8-10.6,10.6-10.6h90.9
	c5.9,0,10.6,4.8,10.6,10.6V215C112.2,217.6,109.3,219.1,107.2,217.7z"/>
<g>
	<g>
		<path fill="#FFFFFF" stroke="#1882A8" stroke-width="5" stroke-miterlimit="10" d="M33.1,171.5c-1.5,1.2-1.5,3.4,0,4.6
			c5.1,4.1,16,12.2,23,12.2s18-8.1,23-12.2c1.5-1.2,1.5-3.4,0-4.6c-5.1-4.1-16-12.2-23-12.2S38.1,167.4,33.1,171.5z"/>
		<ellipse fill="#FFFFFF" stroke="#1882A8" stroke-width="5" stroke-miterlimit="10" cx="56.1" cy="173.8" rx="4.4" ry="4.9"/>
	</g>
</g>
<g>
	<path fill="#B4D085" d="M123.6,117.8c-1.2,0-2.4-0.3-3.4-0.9l-15.9-9.2c-2.1-1.2-3.4-3.5-3.4-5.9V83.4c0-2.4,1.3-4.7,3.4-5.9
		l15.9-9.2c2.1-1.2,4.7-1.2,6.8,0l15.9,9.2c2.1,1.2,3.4,3.5,3.4,5.9v18.4c0,2.4-1.3,4.7-3.4,5.9l-15.9,9.2
		C126,117.5,124.8,117.8,123.6,117.8z M121.9,71.3l1.7,2.9l-15.9,9.2c0,0-0.1,0.1-0.1,0.1v18.4c0,0.1,0,0.1,0.1,0.1l16,9.2
		c0,0,0,0,0.1,0l15.9-9.2c0,0,0.1-0.1,0.1-0.1V83.4c0-0.1,0-0.1-0.1-0.1l-15.9-9.2L121.9,71.3z"/>
</g>
</svg>
