<?xml version="1.0" encoding="utf-8"?>
<!-- Generator: Adobe Illustrator 18.0.0, SVG Export Plug-In . SVG Version: 6.00 Build 0)  -->
<!DOCTYPE svg PUBLIC "-//W3C//DTD SVG 1.1//EN" "http://www.w3.org/Graphics/SVG/1.1/DTD/svg11.dtd">
<svg version="1.1" id="Layer_1" xmlns="http://www.w3.org/2000/svg" xmlns:xlink="http://www.w3.org/1999/xlink" x="0px" y="0px"
	 viewBox="0 0 791 453.7" enable-background="new 0 0 791 453.7" xml:space="preserve">
<path fill="#D8A8CD" d="M479.8,444.6l-41-57.9v-91.6h0.7c5.5,0,9.9-4.4,9.9-9.9c0-5.5-4.4-9.9-9.9-9.9h-68c-5.5,0-9.9,4.4-9.9,9.9
	c0,5.5,4.4,9.9,9.9,9.9h0.7v91.6l-41,57.9c-9.8,13.8,0.1,32.9,17,32.9h114.5C479.7,477.6,489.6,458.4,479.8,444.6z"/>
<path fill="#FEDD10" d="M244.6,331.5v-145h7.4c8,0,14.9-5.8,15.8-13.7c1-9.3-6.3-17.3-15.4-17.3h-71.5c-8,0-14.9,5.8-15.8,13.7
	c-1,9.3,6.3,17.3,15.4,17.3h3.8v145h0c-79.6,16.2-136.4,95.2-116.2,183c11.5,50,62.6,100.3,112.7,111.2
	c97.7,21.2,184.1-52.7,184.1-146.8C364.9,406.1,313.2,345.4,244.6,331.5z"/>
<circle fill="#D8A8CD" cx="564.5" cy="101.5" r="21"/>
<circle fill="none" stroke="#E39771" stroke-width="4" stroke-miterlimit="10" cx="311.7" cy="244.9" r="21"/>
<path fill="#D89D66" d="M434.7,250.6l30-20h115.7c5.5,0,10-4.5,10-10v-55c0-5.5-4.5-10-10-10H444.7c-5.5,0-10,4.5-10,10V250.6z"/>
<line fill="none" stroke="#B4CF84" stroke-width="12" stroke-linecap="round" stroke-miterlimit="10" x1="352.6" y1="138" x2="352.6" y2="162.5"/>
<line fill="none" stroke="#B4CF84" stroke-width="12" stroke-linecap="round" stroke-miterlimit="10" x1="364.8" y1="150.2" x2="340.4" y2="150.2"/>
<path fill="#54C8E5" d="M218.5,134.9l-21.1-14.1h-81.3c-3.9,0-7-3.1-7-7V75.1c0-3.9,3.1-7,7-7h95.3c3.9,0,7,3.1,7,7V134.9z"/>
</svg>
