<?xml version="1.0" encoding="utf-8"?>
<!-- Generator: Adobe Illustrator 18.0.0, SVG Export Plug-In . SVG Version: 6.00 Build 0)  -->
<!DOCTYPE svg PUBLIC "-//W3C//DTD SVG 1.1//EN" "http://www.w3.org/Graphics/SVG/1.1/DTD/svg11.dtd">
<svg version="1.1" id="Layer_1" xmlns="http://www.w3.org/2000/svg" xmlns:xlink="http://www.w3.org/1999/xlink" x="0px" y="0px"
	 viewBox="0 0 953.5 340.5" enable-background="new 0 0 953.5 340.5" xml:space="preserve">
<path fill="#A854A0" d="M644.2,320.1l-26.6-37.5v-59.3h0.5c3.6,0,6.4-2.9,6.4-6.4c0-3.6-2.9-6.4-6.4-6.4h-44c-3.6,0-6.4,2.9-6.4,6.4
	c0,3.6,2.9,6.4,6.4,6.4h0.5v59.3l-26.6,37.5c-6.3,9,0.1,21.4,11,21.4h74.2C644.1,341.4,650.5,329,644.2,320.1z"/>
<g>
	<path fill="#D34E40" d="M230.1,319.4h-75.1c-37.9,0-68.8-30.9-68.8-68.8v-1.3c0-37.9,30.9-68.8,68.8-68.8h39.2v6.8h-39.2
		c-34.2,0-62,27.8-62,62v1.3c0,34.2,27.8,62,62,62h75.1V319.4z"/>
</g>
<g>
	<g>
		
			<rect x="167.9" y="120.2" transform="matrix(0.8738 -0.4862 0.4862 0.8738 -67.8051 116.8538)" fill="#D34E40" width="46.7" height="137.7"/>
	</g>
	<g>
		
			<rect x="215.7" y="248.2" transform="matrix(0.8738 -0.4862 0.4862 0.8738 -95.9266 143.6683)" fill="#D34E40" width="26.4" height="17"/>
	</g>
	<g>
		
			<rect x="139.8" y="110.3" transform="matrix(0.8738 -0.4862 0.4862 0.8738 -39.1691 89.5488)" fill="#D34E40" width="26.4" height="19.8"/>
	</g>
	<g>
		
			<rect x="119.3" y="90.4" transform="matrix(0.8738 -0.4862 0.4862 0.8738 -31.4529 82.1911)" fill="#D34E40" width="46.7" height="22.6"/>
	</g>
</g>
<g>
	<polyline fill="#D34E40" points="202.9,316 207.5,340.2 143.1,340.2 147.7,316 	"/>
</g>
<path fill="#53C8E6" d="M461.3,340.3h-50.5c-6.9,0-12.6-5.6-12.6-12.6v-89.3c0-6.9-17.4-19.1-10.5-19.1h86.1v108.4
	C473.9,334.6,468.3,340.3,461.3,340.3z"/>
<line opacity="0.5" fill="none" stroke="#FFFFFF" stroke-width="2" stroke-miterlimit="10" x1="443.4" y1="262.3" x2="473.6" y2="262.3"/>
<line opacity="0.5" fill="none" stroke="#FFFFFF" stroke-width="2" stroke-miterlimit="10" x1="443.4" y1="284" x2="473.6" y2="284"/>
<line opacity="0.5" fill="none" stroke="#FFFFFF" stroke-width="2" stroke-miterlimit="10" x1="450.7" y1="272.4" x2="473.7" y2="272.4"/>
<circle fill="#53C8E6" cx="479.3" cy="191.9" r="5.8"/>
<line fill="none" stroke="#FFFFFF" stroke-width="2" stroke-miterlimit="10" x1="600.8" y1="243.9" x2="617.6" y2="243.9"/>
<line fill="none" stroke="#FFFFFF" stroke-width="2" stroke-miterlimit="10" x1="600.8" y1="253.1" x2="617.6" y2="253.1"/>
<line fill="none" stroke="#FFFFFF" stroke-width="2" stroke-miterlimit="10" x1="600.8" y1="262.2" x2="617.6" y2="262.2"/>
<path fill="#B4D085" d="M451.5,160.3l30-20h65.6c5.5,0,10-4.5,10-10v-35c0-5.5-4.5-10-10-10h-85.6c-5.5,0-10,4.5-10,10V160.3z"/>
<path fill="#B4D085" d="M106,74.7l-30-20H10.4c-5.5,0-10-4.5-10-10v-35c0-5.5,4.5-10,10-10H96c5.5,0,10,4.5,10,10L106,74.7z"/>
<g>
	<path fill="none" stroke="#FFFFFF" stroke-miterlimit="10" d="M31.5,24.1c-1.4,1.1-1.4,3.2,0,4.4c4.8,3.9,15,11.4,21.7,11.4
		s16.9-7.6,21.7-11.4c1.4-1.1,1.4-3.2,0-4.4c-4.8-3.9-15-11.4-21.7-11.4S36.3,20.3,31.5,24.1z"/>
	<ellipse fill="none" stroke="#FFFFFF" stroke-miterlimit="10" cx="53.2" cy="26.3" rx="4.2" ry="4.6"/>
</g>
<line fill="none" stroke="#FFFFFF" stroke-miterlimit="10" x1="535.7" y1="101.1" x2="473.5" y2="101.1"/>
<line fill="none" stroke="#FFFFFF" stroke-miterlimit="10" x1="535.7" y1="112.1" x2="473.5" y2="112.1"/>
<line fill="none" stroke="#FFFFFF" stroke-miterlimit="10" x1="535.7" y1="123.1" x2="473.5" y2="123.1"/>
<polyline fill="none" stroke="#8DC63F" stroke-miterlimit="10" points="412.7,204.3 412.7,30.9 520,30.9 520,74.7 "/>
<polyline fill="none" stroke="#8DC63F" stroke-miterlimit="10" points="563,112.1 585,112.1 585,206.2 "/>
<path fill="#FFDE17" d="M799.1,132.5l-17.8-13.7h-68.6c-3.3,0-5.9-3.1-5.9-6.8V74.4c0-3.8,2.7-6.8,5.9-6.8h80.5
	c3.3,0,5.9,3.1,5.9,6.8V132.5z"/>
<g>
	<g>
		<path fill="#B58C4A" d="M833.3,182.8h-34c-2,0-3.7,1.6-3.7,3.7s1.6,3.7,3.7,3.7h5.4c-0.1,0.4-0.1,0.8-0.1,1.3v102.3
			c0,6.4,5.2,11.7,11.7,11.7c6.4,0,11.7-5.2,11.7-11.7V190.2h5.3c2,0,3.7-1.6,3.7-3.7S835.4,182.8,833.3,182.8z"/>
		<path fill="#B58C4A" d="M888.6,182.8h-34c-2,0-3.7,1.6-3.7,3.7s1.6,3.7,3.7,3.7h5.4c-0.1,0.4-0.1,0.8-0.1,1.3v102.3
			c0,6.4,5.2,11.7,11.7,11.7c6.4,0,11.7-5.2,11.7-11.7V190.2h5.3c2,0,3.7-1.6,3.7-3.7S890.6,182.8,888.6,182.8z"/>
		<path fill="#B58C4A" d="M943.8,182.8h-34c-2,0-3.7,1.6-3.7,3.7s1.6,3.7,3.7,3.7h5.4c-0.1,0.4-0.1,0.8-0.1,1.3v102.3
			c0,6.4,5.2,11.7,11.7,11.7c6.4,0,11.7-5.2,11.7-11.7V190.2h5.3c2,0,3.7-1.6,3.7-3.7S945.9,182.8,943.8,182.8z"/>
		
			<line fill="#5D5E5E" stroke="#EEEBE4" stroke-linecap="round" stroke-miterlimit="10" x1="804.6" y1="202.5" x2="819.8" y2="202.5"/>
		
			<line fill="#5D5E5E" stroke="#EEEBE4" stroke-linecap="round" stroke-miterlimit="10" x1="804.6" y1="210.7" x2="811.5" y2="210.7"/>
		
			<line fill="#5D5E5E" stroke="#EEEBE4" stroke-linecap="round" stroke-miterlimit="10" x1="804.6" y1="227.2" x2="812" y2="227.2"/>
		
			<line fill="#5D5E5E" stroke="#EEEBE4" stroke-linecap="round" stroke-miterlimit="10" x1="805.1" y1="218.9" x2="820.3" y2="218.9"/>
		<line fill="#5D5E5E" stroke="#EEEBE4" stroke-linecap="round" stroke-miterlimit="10" x1="859.6" y1="221" x2="874.8" y2="221"/>
		
			<line fill="#5D5E5E" stroke="#EEEBE4" stroke-linecap="round" stroke-miterlimit="10" x1="859.6" y1="229.2" x2="867.5" y2="229.2"/>
		
			<line fill="#5D5E5E" stroke="#EEEBE4" stroke-linecap="round" stroke-miterlimit="10" x1="859.6" y1="245.7" x2="867.5" y2="245.7"/>
		
			<line fill="#5D5E5E" stroke="#EEEBE4" stroke-linecap="round" stroke-miterlimit="10" x1="857.1" y1="237.4" x2="872.3" y2="237.4"/>
		
			<line fill="#5D5E5E" stroke="#EEEBE4" stroke-linecap="round" stroke-miterlimit="10" x1="913.8" y1="253.3" x2="929.1" y2="253.3"/>
		
			<line fill="#5D5E5E" stroke="#EEEBE4" stroke-linecap="round" stroke-miterlimit="10" x1="913.8" y1="261.5" x2="923" y2="261.5"/>
		
			<line fill="#5D5E5E" stroke="#EEEBE4" stroke-linecap="round" stroke-miterlimit="10" x1="913.8" y1="277.9" x2="923" y2="277.9"/>
		
			<line fill="#5D5E5E" stroke="#EEEBE4" stroke-linecap="round" stroke-miterlimit="10" x1="914.3" y1="269.7" x2="929.6" y2="269.7"/>
	</g>
	<circle fill="none" stroke="#B48B49" stroke-miterlimit="10" cx="820.5" cy="164" r="7"/>
	<circle fill="none" stroke="#B48B49" stroke-miterlimit="10" cx="808.5" cy="143.5" r="4.5"/>
	<circle fill="none" stroke="#B48B49" stroke-miterlimit="10" cx="817" cy="132" r="3"/>
	<path fill="#EFEBE5" d="M825,293.4c0,4.8-3.9,8.7-8.7,8.7l0,0c-4.8,0-8.7-3.9-8.7-8.7V274c2.4,0,17.4-13,17.4-3.7V293.4z"/>
	<line fill="none" stroke="#B48B49" stroke-width="3" stroke-miterlimit="10" x1="789" y1="253.5" x2="801" y2="253.5"/>
	<line fill="none" stroke="#B48B49" stroke-width="3" stroke-miterlimit="10" x1="941.8" y1="253.5" x2="953.8" y2="253.5"/>
	<line fill="none" stroke="#B48B49" stroke-width="3" stroke-miterlimit="10" x1="832.5" y1="253.5" x2="855.7" y2="253.5"/>
	<line fill="none" stroke="#B48B49" stroke-width="3" stroke-miterlimit="10" x1="887.3" y1="253.5" x2="910.5" y2="253.5"/>
</g>
<polyline fill="none" stroke="#B48B49" stroke-miterlimit="10" points="927,175 927,130 833.7,130 "/>
<path fill="#A676B3" d="M600.3,306.3c0,4.1-3.3,7.3-7.3,7.3l0,0c-4.1,0-7.3-3.3-7.3-7.3l0,0c0-4.1,3.3-7.3,7.3-7.3l0,0
	C597.1,299,600.3,302.3,600.3,306.3L600.3,306.3z"/>
<path fill="#A676B3" d="M614.3,321.7c0,2.2-1.8,4-4,4l0,0c-2.2,0-4-1.8-4-4l0,0c0-2.2,1.8-4,4-4l0,0
	C612.5,317.7,614.3,319.5,614.3,321.7L614.3,321.7z"/>
</svg>
