<?xml version="1.0" encoding="utf-8"?>
<!-- Generator: Adobe Illustrator 18.1.0, SVG Export Plug-In . SVG Version: 6.00 Build 0)  -->
<!DOCTYPE svg PUBLIC "-//W3C//DTD SVG 1.1//EN" "http://www.w3.org/Graphics/SVG/1.1/DTD/svg11.dtd">
<svg version="1.1" id="Layer_1" xmlns="http://www.w3.org/2000/svg" xmlns:xlink="http://www.w3.org/1999/xlink" x="0px" y="0px"
	 viewBox="0 0 216.3 171.8" enable-background="new 0 0 216.3 171.8" xml:space="preserve">
<path fill="#B4D085" d="M182.9,156.5l-38.6-23.3H18.1C8.1,133.2,0,125,0,115l0-73.4c0-10,8.1-18.1,18.1-18.1h155.2
	c10,0,18.1,8.1,18.1,18.1v110.3C191.4,156.3,186.5,158.9,182.9,156.5z"/>
<path fill="#B4D085" d="M200.5,0l-1.1,10c-0.3,2.5-2.2,4.4-4.7,4.7l-10,1.1l10,1.1c2.5,0.3,4.4,2.2,4.7,4.7l1.1,10l1.1-10
	c0.3-2.5,2.2-4.4,4.7-4.7l10-1.1l-10-1.1c-2.5-0.3-4.4-2.2-4.7-4.7L200.5,0z"/>
<path fill="#B4D085" d="M133.5,143.1l-1,9.1c-0.3,2.2-2,4-4.2,4.2l-9.1,1l9.1,1c2.2,0.3,4,2,4.2,4.2l1,9.1l1-9.1
	c0.3-2.2,2-4,4.2-4.2l9.1-1l-9.1-1c-2.2-0.3-4-2-4.2-4.2L133.5,143.1z"/>
<path fill="#FFFFFF" d="M54.7,53.5l-0.8,6.9c-0.2,1.7-1.5,3-3.2,3.2l-6.9,0.8l6.9,0.8c1.7,0.2,3,1.5,3.2,3.2l0.8,6.9l0.8-6.9
	c0.2-1.7,1.5-3,3.2-3.2l6.9-0.8l-6.9-0.8c-1.7-0.2-3-1.5-3.2-3.2L54.7,53.5z"/>
<path fill="#FFFFFF" d="M137,81.5l-0.5,4.6c-0.1,1.1-1,2-2.2,2.2l-4.6,0.5l4.6,0.5c1.1,0.1,2,1,2.2,2.2l0.5,4.6l0.5-4.6
	c0.1-1.1,1-2,2.2-2.2l4.6-0.5l-4.6-0.5c-1.1-0.1-2-1-2.2-2.2L137,81.5z"/>
<path fill="#FFFFFF" d="M133.4,41.7l-5.5,4.3c-1.3,1.1-3.2,1.1-4.6,0l-5.5-4.3l4.3,5.5c1.1,1.3,1.1,3.2,0,4.6l-4.3,5.5l5.5-4.3
	c1.3-1.1,3.2-1.1,4.6,0l5.5,4.3l-4.3-5.5c-1.1-1.3-1.1-3.2,0-4.6L133.4,41.7z"/>
<circle fill="#FFFFFF" cx="93.6" cy="75.7" r="16.8"/>
<rect x="87.1" y="83.1" fill="#FFFFFF" width="13.1" height="16.3"/>
<path fill="#FFFFFF" d="M102.6,104.9H84.7c-0.9,0-1.7-0.8-1.7-1.7v0c0-0.9,0.8-1.7,1.7-1.7h17.9c0.9,0,1.7,0.8,1.7,1.7v0
	C104.3,104.1,103.5,104.9,102.6,104.9z"/>
<path fill="#FFFFFF" d="M100.6,110H86.7c-0.9,0-1.7-0.8-1.7-1.7l0,0c0-0.9,0.8-1.7,1.7-1.7h13.8c0.9,0,1.7,0.8,1.7,1.7l0,0
	C102.3,109.3,101.5,110,100.6,110z"/>
</svg>
