<?xml version="1.0" encoding="utf-8"?>
<!-- Generator: Adobe Illustrator 18.1.1, SVG Export Plug-In . SVG Version: 6.00 Build 0)  -->
<svg version="1.1" id="Layer_1" xmlns="http://www.w3.org/2000/svg" xmlns:xlink="http://www.w3.org/1999/xlink" x="0px" y="0px"
	 viewBox="0 0 297.6 302.9" enable-background="new 0 0 297.6 302.9" xml:space="preserve">
<g>
	<path fill="#110C0C" d="M148.8,302.9L20.1,238.7C7.7,231.6,0,218.3,0,204V98.9c0-14.3,7.7-27.6,20.1-34.7L148.8,0l128.7,64.1
		c12.4,7.1,20.1,20.5,20.1,34.7V204c0,14.3-7.7,27.6-20.1,34.7L148.8,302.9z M148.8,10.2L24.5,71.8C14.9,77.4,8.9,87.7,8.9,98.9V204
		c0,11.1,6,21.5,15.6,27.1l124.3,61.6L273.1,231c9.6-5.6,15.6-15.9,15.6-27.1V98.9c0-11.1-6-21.5-15.6-27.1L148.8,10.2z"/>
</g>
<g>
	<g>
		<g>
			<path fill="#110C0C" d="M186,92l-6.9-8.3c-0.4-0.5-0.4-1.3,0.2-1.7c0.5-0.4,1.3-0.4,1.7,0.2l5.1,6.1l6-7.2l6,7.2l6-7.2l6,7.2
				l6-7.2l6.9,8.3c0.4,0.5,0.4,1.3-0.2,1.7c-0.5,0.4-1.3,0.4-1.7-0.2l-5.1-6.1l-6,7.2l-6-7.2l-6,7.2l-6-7.2L186,92z"/>
		</g>
	</g>
	<g>
		<g>
			<path fill="#110C0C" d="M108,92.2l7.3-8.2c0.4-0.5,0.4-1.3-0.1-1.7c-0.5-0.4-1.3-0.4-1.7,0.1l-5.5,6.2l-6.4-7.2l-6.4,7.2L89,81.3
				l-6.4,7.2l-6.4-7.2L69,89.6c-0.4,0.5-0.4,1.3,0.1,1.7c0.5,0.4,1.3,0.4,1.7-0.1l5.5-6.2l6.4,7.2L89,85l6.4,7.2l6.4-7.2L108,92.2z"
				/>
		</g>
	</g>
</g>
<g>
	<g>
		<path fill="#110C0C" d="M78.2,186.5c-7.5,0-13.2-5.5-13.2-13.7v-56.4h9.2v56.8c0,2.9,1.5,4.6,4.1,4.6c2.8,0,4.3-1.7,4.3-4.6v-56.8
			h8.7v56.4C91.2,181,85.7,186.5,78.2,186.5z"/>
	</g>
	<g>
		<path fill="#110C0C" d="M115.7,185.4l-5.4-24.1l-5.8,24.1h-8.7l9.5-34.3l-8.8-34.7h9.3l5,25.2l5.7-25.2h8.6l-9.1,33.3l9,35.8
			H115.7z"/>
	</g>
	<g>
		<g>
			<path fill="#110C0C" d="M145.8,185.4v-69h9.1v60.4h12.6v8.6H145.8z"/>
		</g>
		<g>
			<path fill="#110C0C" d="M192.2,185.4l-1.2-13.4h-8l-1.6,13.4H173l9.3-69h10l9.3,69H192.2z M187.3,134l-3.3,29.6h6L187.3,134z"/>
		</g>
		<g>
			<path fill="#110C0C" d="M221.8,185.4h-14.3v-69h14.2c5.9,0,11.2,3.1,11.2,12.1v12.5c0,4.5-1.6,7.7-5.4,9.1c4,1.7,5.5,4.9,5.5,9.2
				v13.9C233.1,182.4,227.6,185.4,221.8,185.4z M224.1,128.7c0-2.7-1-3.9-3-3.9h-4.4v21.9h4c2.2,0,3.4-1.3,3.4-4.1V128.7z
				 M224.2,158.5c0-2.7-1.4-4.2-3.4-4.2h-4.1V177h4.5c2,0,3-1.2,3-3.9V158.5z"/>
		</g>
	</g>
</g>
<g>
	<path d="M137.1,83.4h-2.8v9.5c0,0.8-0.6,1.4-1.4,1.4c-0.8,0-1.4-0.6-1.4-1.4v-9.5h-2.8c-0.7,0-1.2-0.6-1.2-1.3
		c0-0.7,0.6-1.2,1.2-1.2h8.4c0.7,0,1.2,0.6,1.2,1.3C138.3,82.8,137.8,83.4,137.1,83.4z"/>
	<path d="M152.6,94.3c-0.8,0-1.4-0.6-1.4-1.4v-4.3h-6.3v4.3c0,0.8-0.6,1.4-1.4,1.4c-0.8,0-1.4-0.6-1.4-1.4V82.1
		c0-0.8,0.6-1.4,1.4-1.4c0.8,0,1.4,0.6,1.4,1.4v4h6.3v-4c0-0.8,0.6-1.4,1.5-1.4c0.8,0,1.4,0.6,1.4,1.4v10.8
		C154,93.7,153.4,94.3,152.6,94.3z"/>
	<path d="M167,94.2h-6.7c-0.9,0-1.6-0.7-1.6-1.6V82.5c0-0.9,0.7-1.6,1.6-1.6h6.7c0.7,0,1.2,0.6,1.2,1.3c0,0.7-0.6,1.2-1.2,1.2h-5.5
		v2.8h5.4c0.7,0,1.2,0.6,1.2,1.3c0,0.7-0.6,1.2-1.2,1.2h-5.4v3h5.5c0.7,0,1.2,0.6,1.2,1.2C168.2,93.7,167.6,94.2,167,94.2z"/>
</g>
<line fill="none" stroke="#110C0C" stroke-width="3" stroke-linecap="round" stroke-miterlimit="10" x1="110.9" y1="206.8" x2="110.9" y2="218.8"/>
<line fill="none" stroke="#110C0C" stroke-width="3" stroke-linecap="round" stroke-miterlimit="10" x1="186.6" y1="206.8" x2="186.6" y2="218.8"/>
<g>
	<line fill="none" stroke="#110C0C" stroke-width="3" stroke-miterlimit="10" x1="77.5" y1="212.8" x2="110.9" y2="212.8"/>
	<circle fill="none" stroke="#110C0C" stroke-width="3" stroke-miterlimit="10" cx="73.3" cy="212.8" r="5"/>
</g>
<g>
	<circle fill="none" stroke="#110C0C" stroke-width="3" stroke-miterlimit="10" cx="224.2" cy="212.8" r="5"/>
	<line fill="none" stroke="#110C0C" stroke-width="3" stroke-miterlimit="10" x1="220.1" y1="212.8" x2="186.6" y2="212.8"/>
</g>
<g>
	<path d="M139.5,219.4c-0.8,0-1.4-0.7-1.4-1.4l0.1-8l-3.7,8.9c-0.1,0.3-0.4,0.5-0.8,0.5c-0.3,0-0.6-0.2-0.8-0.5l-3.5-9l-0.1,8.1
		c0,0.8-0.7,1.4-1.5,1.4c-0.8,0-1.4-0.7-1.4-1.4l0.1-10.5c0-0.9,0.7-1.6,1.6-1.6c1.3-0.1,2.4,0.2,2.9,1.3l2.7,6.8l2.8-6.7
		c0.3-0.8,1.1-1.3,2-1.3c1.3-0.2,2.6,0.3,2.6,1.6l-0.1,10.4C140.9,218.8,140.3,219.4,139.5,219.4z"/>
	<path d="M150.3,219.6c-1.9,0-4.3-0.7-5.1-1.8c-0.1-0.2-0.2-0.4-0.2-0.7c0-0.8,0.7-1.3,1.4-1.3c0.3,0,0.5,0.1,0.8,0.2
		c0.9,0.6,2,1.1,3.3,1.1c1.6,0,2.3-0.7,2.3-1.5c0-2.4-7.7-0.8-7.6-5.8c0-2.2,2-4,5.1-4c1.5,0,3.8,0.5,4.6,1.5
		c0.2,0.2,0.2,0.4,0.2,0.7c0,0.8-0.8,1.3-1.4,1.3c-0.2,0-0.5-0.1-0.7-0.2c-0.9-0.5-2-0.8-2.9-0.8c-1.2,0-1.9,0.5-1.9,1.3
		c0,2.1,7.7,0.8,7.6,5.8C155.6,217.9,153.9,219.7,150.3,219.6z"/>
	<path d="M169.7,219.7c-0.5,0-1.1-0.3-1.4-0.7l-5.8-8.2l-0.1,7.4c0,0.8-0.7,1.4-1.5,1.4c-0.8,0-1.4-0.7-1.4-1.4l0.1-10.4
		c0-0.9,0.8-1.8,1.9-1.8c0.6,0,1.2,0.3,1.6,0.8l5.6,7.8l0.1-7.1c0-0.8,0.7-1.4,1.5-1.4c0.8,0,1.4,0.7,1.4,1.4l-0.1,10.5
		C171.5,218.9,170.7,219.7,169.7,219.7z"/>
</g>
<circle cx="151.1" cy="255.4" r="7.1"/>
</svg>
