<?xml version="1.0" encoding="utf-8"?>
<!-- Generator: Adobe Illustrator 18.1.1, SVG Export Plug-In . SVG Version: 6.00 Build 0)  -->
<svg version="1.1" id="Layer_1" xmlns="http://www.w3.org/2000/svg" xmlns:xlink="http://www.w3.org/1999/xlink" x="0px" y="0px"
	 viewBox="0 0 278.8 253.9" enable-background="new 0 0 278.8 253.9" xml:space="preserve">
<path fill="#AACC65" d="M35.5,172.8l49.1-46.1h171.1c12.7,0,23-10.3,23-23V23c0-12.7-10.3-23-23-23L58.5,0c-12.7,0-23,10.3-23,23
	V172.8z"/>
<path fill="none" stroke="#AACC65" stroke-width="7" stroke-miterlimit="10" d="M216.8,245.8l-49.1-46.1H26.5c-12.7,0-23-10.3-23-23
	V96c0-12.7,10.3-23,23-23h167.2c12.7,0,23,10.3,23,23V245.8z"/>
<line fill="none" stroke="#FFFFFF" stroke-width="7" stroke-linecap="round" stroke-miterlimit="10" x1="231.6" y1="36.5" x2="88.2" y2="36.5"/>
<g>
	
		<line fill="none" stroke="#FFFFFF" stroke-width="7" stroke-linecap="round" stroke-miterlimit="10" x1="159.9" y1="61.9" x2="88.2" y2="61.9"/>
	
		<line fill="none" stroke="#FFFFFF" stroke-width="7" stroke-linecap="round" stroke-miterlimit="10" x1="231.9" y1="61.9" x2="175.2" y2="61.9"/>
</g>
<line fill="none" stroke="#FFFFFF" stroke-width="7" stroke-linecap="round" stroke-miterlimit="10" x1="192.2" y1="87.2" x2="88.2" y2="87.2"/>
</svg>
