<?xml version="1.0" encoding="utf-8"?>
<!-- Generator: Adobe Illustrator 18.1.0, SVG Export Plug-In . SVG Version: 6.00 Build 0)  -->
<!DOCTYPE svg PUBLIC "-//W3C//DTD SVG 1.1//EN" "http://www.w3.org/Graphics/SVG/1.1/DTD/svg11.dtd">
<svg version="1.1" id="Layer_1" xmlns="http://www.w3.org/2000/svg" xmlns:xlink="http://www.w3.org/1999/xlink" x="0px" y="0px"
	 viewBox="0 0 217.7 184.6" enable-background="new 0 0 217.7 184.6" xml:space="preserve">
<path fill="#1882A8" d="M209.1,148.8l-38.6-23.3H44.3c-10,0-18.1-8.1-18.1-18.1V43.9c0-10,8.1-18.1,18.1-18.1h155.2
	c10,0,18.1,8.1,18.1,18.1v100.3C217.7,148.6,212.8,151.2,209.1,148.8z"/>
<g>
	
		<line fill="none" stroke="#FFFFFF" stroke-width="3" stroke-linecap="round" stroke-miterlimit="10" x1="173.9" y1="56.3" x2="69.9" y2="56.3"/>
	
		<line fill="none" stroke="#FFFFFF" stroke-width="3" stroke-linecap="round" stroke-miterlimit="10" x1="121.9" y1="75.3" x2="69.9" y2="75.3"/>
	
		<line fill="none" stroke="#FFFFFF" stroke-width="3" stroke-linecap="round" stroke-miterlimit="10" x1="166.9" y1="75.3" x2="135.9" y2="75.3"/>
	
		<line fill="none" stroke="#FFFFFF" stroke-width="3" stroke-linecap="round" stroke-miterlimit="10" x1="173.9" y1="94.2" x2="69.9" y2="94.2"/>
</g>
<path fill="#1882A8" d="M127,136.4l1.7,15.2c0.4,3.7,3.4,6.7,7.1,7.1l15.2,1.7l-15.2,1.7c-3.7,0.4-6.7,3.4-7.1,7.1l-1.7,15.2
	l-1.7-15.2c-0.4-3.7-3.4-6.7-7.1-7.1l-15.2-1.7l15.2-1.7c3.7-0.4,6.7-3.4,7.1-7.1L127,136.4z"/>
<path fill="#1882A8" d="M12.9,0l0.9,8.2c0.2,2,1.8,3.6,3.8,3.8l8.2,0.9l-8.2,0.9c-2,0.2-3.6,1.8-3.8,3.8l-0.9,8.2L12,17.6
	c-0.2-2-1.8-3.6-3.8-3.8L0,12.9L8.2,12c2-0.2,3.6-1.8,3.8-3.8L12.9,0z"/>
</svg>
