<?xml version="1.0" encoding="utf-8"?>
<!-- Generator: Adobe Illustrator 18.0.0, SVG Export Plug-In . SVG Version: 6.00 Build 0)  -->
<!DOCTYPE svg PUBLIC "-//W3C//DTD SVG 1.1//EN" "http://www.w3.org/Graphics/SVG/1.1/DTD/svg11.dtd">
<svg version="1.1" id="Layer_1" xmlns="http://www.w3.org/2000/svg" xmlns:xlink="http://www.w3.org/1999/xlink" x="0px" y="0px"
	 viewBox="0 0 128.9 131.1" enable-background="new 0 0 128.9 131.1" xml:space="preserve">
<g>
	<g>
		<g>
			<path fill="#58595B" d="M64.4,131.1L8.7,103.4c-5.4-3.1-8.7-8.9-8.7-15V42.8c0-6.2,3.3-12,8.7-15L64.4,0l55.7,27.8
				c5.4,3.1,8.7,8.9,8.7,15v45.5c0,6.2-3.3,12-8.7,15L64.4,131.1z M64.4,4.4L10.6,31.1C6.4,33.5,3.8,38,3.8,42.8v45.5
				c0,4.8,2.6,9.3,6.8,11.7l53.8,26.7l53.8-26.7c4.2-2.4,6.8-6.9,6.8-11.7V42.8c0-4.8-2.6-9.3-6.8-11.7L64.4,4.4z"/>
		</g>
		<g>
			<g>
				<g>
					<g>
						<path fill="#58595B" d="M77,45.9l-3-3.6c-0.2-0.2-0.2-0.5,0.1-0.7c0.2-0.2,0.5-0.2,0.7,0.1l2.2,2.6l2.6-3.1l2.6,3.1l2.6-3.1
							l2.6,3.1l2.6-3.1l3,3.6c0.2,0.2,0.2,0.5-0.1,0.7c-0.2,0.2-0.6,0.2-0.7-0.1L90,42.8l-2.6,3.1l-2.6-3.1l-2.6,3.1l-2.6-3.1
							L77,45.9z"/>
					</g>
				</g>
				<g>
					<g>
						<path fill="#58595B" d="M46.7,46l3.1-3.6c0.2-0.2,0.2-0.5,0-0.7c-0.2-0.2-0.5-0.2-0.7,0l-2.4,2.7l-2.8-3.1l-2.8,3.1l-2.8-3.1
							l-2.8,3.1l-2.8-3.1l-3.1,3.6c-0.2,0.2-0.2,0.5,0,0.7c0.2,0.2,0.5,0.2,0.7,0l2.4-2.7l2.8,3.1l2.8-3.1l2.8,3.1l2.8-3.1L46.7,46z
							"/>
					</g>
				</g>
				<g>
					<g>
						<path fill="#58595B" d="M55.1,45.9v-3.7h-1.3v-0.8h3.6v0.8h-1.3v3.7H55.1z"/>
					</g>
					<g>
						<path fill="#58595B" d="M62.5,45.9V44h-2.1v1.9h-1v-4.5h1v1.8h2.1v-1.8h1v4.5H62.5z"/>
					</g>
					<g>
						<path fill="#58595B" d="M65.7,45.9v-4.5h3.2v0.8h-2.2v1h2.2V44h-2.2v1h2.2v0.8H65.7z"/>
					</g>
				</g>
			</g>
			<g>
				<g>
					<g>
						<path fill="#58595B" d="M44.5,94.5h-2.3v-8.8h2.3c1,0,1.7,0.5,1.7,1.7v1.3c0,0.7-0.3,1.1-0.9,1.3c0.7,0.2,0.9,0.7,0.9,1.3v1.5
							C46.2,94,45.5,94.5,44.5,94.5z M44.9,87.4c0-0.4-0.2-0.6-0.5-0.6h-0.7v2.6h0.7c0.3,0,0.5-0.2,0.5-0.6V87.4z M44.9,91.2
							c0-0.4-0.2-0.6-0.5-0.6h-0.7v2.7h0.7c0.3,0,0.5-0.2,0.5-0.6V91.2z"/>
					</g>
					<g>
						<path fill="#58595B" d="M48,94.5v-8.8h3.5v1.2h-2.1v2.4h1.5v1.2h-1.5v2.7h2.1v1.3H48z"/>
					</g>
					<g>
						<path fill="#58595B" d="M56.4,94.5l-1.5-4l-0.5-1.4v5.3h-1.3v-8.8h1.3l1.4,4l0.5,1.4v-5.4h1.3v8.8H56.4z"/>
					</g>
					<g>
						<path fill="#58595B" d="M61.5,94.5h-2.2v-8.8h2.2c1.3,0,2,0.8,2,2.1v4.7C63.5,93.8,62.7,94.5,61.5,94.5z M62.1,87.8
							c0-0.6-0.2-0.8-0.7-0.8h-0.7v6.3h0.7c0.5,0,0.7-0.3,0.7-0.8V87.8z"/>
					</g>
					<g>
						<path fill="#58595B" d="M67.2,90.9v3.5h-1.4v-3.5l-1.6-5.3h1.4l0.9,3.7l0.9-3.7h1.4L67.2,90.9z"/>
					</g>
					<g>
						<path fill="#58595B" d="M75.1,94.5h-1.3l-0.7-5.2l-0.8,5.2h-1.2l-1.3-8.8h1.4l0.6,5.9l0.8-5.9h1.1l0.7,5.9l0.7-5.9h1.3
							L75.1,94.5z"/>
					</g>
					<g>
						<path fill="#58595B" d="M79.9,94.6c-1.3,0-2.1-0.9-2.1-2.1v-5c0-1.2,0.8-2.1,2.1-2.1c1.3,0,2.1,0.9,2.1,2.1v5
							C82,93.8,81.2,94.6,79.9,94.6z M80.6,87.5c0-0.4-0.3-0.7-0.7-0.7c-0.4,0-0.7,0.3-0.7,0.7v5.2c0,0.4,0.3,0.7,0.7,0.7
							c0.4,0,0.7-0.3,0.7-0.7V87.5z"/>
					</g>
					<g>
						<path fill="#58595B" d="M87.2,94.5c-0.5,0-0.8-0.5-0.8-1.2v-1.9c0-0.4-0.2-0.6-0.6-0.6h-0.7v3.7h-1.4v-8.8h2.3
							c1,0,1.7,0.5,1.7,1.7V89c0,0.6-0.3,1-0.8,1.2c0.6,0.2,0.9,0.7,0.9,1.2v1.8c0,0.4,0.1,0.7,0.3,0.9v0.4H87.2z M86.4,87.4
							c0-0.4-0.1-0.6-0.5-0.6h-0.7v2.8h0.7c0.3,0,0.5-0.2,0.5-0.6V87.4z"/>
					</g>
					<g>
						<path fill="#58595B" d="M92.5,94.5l-1-3.7L91,92.1v2.4h-1.4v-8.8H91v4.1l1.5-4.1h1.4l-1.4,3.7l1.5,5.1H92.5z"/>
					</g>
					<g>
						<path fill="#58595B" d="M97.2,94.6c-1.3,0-2.1-0.8-2.1-2v-0.8h1.3v0.8c0,0.6,0.3,0.9,0.7,0.9c0.5,0,0.7-0.3,0.7-0.8
							c0-0.8-0.4-1.3-1.1-2.1c-0.7-0.7-1.6-1.8-1.6-2.9c0-1.2,0.7-2.2,2.1-2.2c1.2,0,2,0.8,2,2v0.8h-1.3v-0.8c0-0.5-0.2-0.8-0.7-0.8
							c-0.4,0-0.7,0.3-0.7,0.7c0,0.9,0.4,1.3,1.2,2.2c0.9,0.9,1.5,1.8,1.5,2.9C99.2,93.9,98.3,94.6,97.2,94.6z"/>
					</g>
				</g>
				<g>
					<g>
						<path fill="#58595B" d="M33.9,91.9l-0.2-1.2h-0.9l-0.2,1.2h-0.9l1-6.2h1.1l1,6.2H33.9z M33.3,87.3L33,89.8h0.7L33.3,87.3z"/>
					</g>
					<g>
						<path fill="#58595B" d="M37.5,86.6v5.3h-1v-5.3h-1v-0.9h2.9v0.9H37.5z"/>
					</g>
				</g>
				<g>
					<g>
						<rect x="31.7" y="93.5" fill="#58595B" width="6.9" height="1"/>
					</g>
				</g>
			</g>
		</g>
		<g>
			<g>
				<path fill="#58595B" d="M35.8,79.7c-3,0-5.4-2.2-5.4-5.5V51.4h3.7v23c0,1.2,0.6,1.8,1.6,1.8c1.1,0,1.7-0.7,1.7-1.8v-23H41v22.8
					C41,77.5,38.8,79.7,35.8,79.7z"/>
			</g>
			<g>
				<path fill="#58595B" d="M50.9,79.3l-2.2-9.8l-2.4,9.8h-3.5l3.8-13.9l-3.6-14.1h3.8l2,10.2l2.3-10.2h3.5L51,64.9l3.6,14.5H50.9z"
					/>
			</g>
			<g>
				<g>
					<path fill="#58595B" d="M63.1,79.3V51.4h3.7v24.5h5.1v3.5H63.1z"/>
				</g>
				<g>
					<path fill="#58595B" d="M81.9,79.3l-0.5-5.4h-3.2l-0.6,5.4h-3.4l3.8-27.9h4l3.7,27.9H81.9z M79.9,58.5l-1.3,12H81L79.9,58.5z"
						/>
				</g>
				<g>
					<path fill="#58595B" d="M93.9,79.3h-5.8V51.4h5.7c2.4,0,4.6,1.3,4.6,4.9v5.1c0,1.8-0.6,3.1-2.2,3.7c1.6,0.7,2.2,2,2.2,3.7v5.6
						C98.4,78.1,96.3,79.3,93.9,79.3z M94.8,56.4c0-1.1-0.4-1.6-1.2-1.6h-1.8v8.9h1.6c0.9,0,1.4-0.5,1.4-1.7V56.4z M94.9,68.4
						c0-1.1-0.5-1.7-1.4-1.7h-1.6v9.2h1.8c0.8,0,1.2-0.5,1.2-1.6V68.4z"/>
				</g>
			</g>
		</g>
		<g>
			<g>
				<circle fill="#58595B" cx="56.7" cy="108.4" r="1.4"/>
			</g>
			<g>
				<circle fill="#58595B" cx="65.9" cy="108.4" r="1.4"/>
			</g>
			<g>
				<circle fill="#58595B" cx="75.1" cy="108.4" r="1.4"/>
			</g>
		</g>
		<path fill="#58595B" d="M71.7,28.1l-3.5-5v-6h1.3c0.4,0,0.8-0.3,0.8-0.8s-0.3-0.8-0.8-0.8h-2.8v7.9l1.8,2.5h-8l1.8-2.5v-7.9h-2.8
			c-0.4,0-0.8,0.3-0.8,0.8s0.3,0.8,0.8,0.8h1.3v6l-3.5,5c-0.6,0.8-0.6,1.8-0.2,2.7c0.5,0.9,1.3,1.4,2.3,1.4h10.2
			c1,0,1.9-0.5,2.3-1.4C72.4,30,72.3,28.9,71.7,28.1z M70.6,30.1c-0.2,0.4-0.6,0.6-1,0.6H59.3c-0.4,0-0.8-0.2-1-0.6
			s-0.2-0.8,0.1-1.2l1-1.4h10.1l1,1.4C70.7,29.3,70.8,29.8,70.6,30.1z"/>
	</g>
</g>
</svg>
